<svg width="30" height="32" viewBox="0 0 30 32" fill="none" xmlns="http://www.w3.org/2000/svg">
<path d="M21.9009 9.52052L4.85571 0.395006C3.96993 -0.0791828 3.00946 -0.103417 2.17816 0.199665L16.6999 14.7214L21.9009 9.52052Z" fill="#01FFC2"/>
<path d="M28.2581 12.9231L23.3482 10.2946L17.8112 15.8315L23.3482 21.3685L28.258 18.7399C30.5806 17.4965 30.5806 14.1665 28.2581 12.9231Z" fill="#01FFC2"/>
<path d="M0.849077 1.09082C0.328275 1.66322 0 2.42739 0 3.30293V28.3601C0 29.2357 0.328275 29.9999 0.849013 30.5723L15.5898 15.8315L0.849077 1.09082Z" fill="#01FFC2"/>
<path d="M2.17816 31.4647C3.0094 31.7677 3.96993 31.7436 4.85571 31.2693L21.9009 22.1438L16.7 16.9429L2.17816 31.4647Z" fill="#01FFC2"/>
</svg>
