<svg width="40" height="40" viewBox="0 0 40 40" fill="none" xmlns="http://www.w3.org/2000/svg">
<path d="M26.9009 13.6884L9.85568 4.56285C8.9699 4.08866 8.00944 4.06443 7.17814 4.36751L21.6999 18.8893L26.9009 13.6884Z" fill="#01FFC2"/>
<path d="M33.2581 17.0909L28.3482 14.4624L22.8112 19.9993L28.3482 25.5363L33.258 22.9077C35.5806 21.6643 35.5806 18.3343 33.2581 17.0909Z" fill="#01FFC2"/>
<path d="M5.84908 5.25871C5.32827 5.83112 5 6.59528 5 7.47083V32.528C5 33.4036 5.32827 34.1678 5.84901 34.7402L20.5898 19.9994L5.84908 5.25871Z" fill="#01FFC2"/>
<path d="M7.17814 35.6324C8.00938 35.9355 8.9699 35.9114 9.85568 35.4371L26.9009 26.3116L21.7 21.1107L7.17814 35.6324Z" fill="#01FFC2"/>
</svg>
