<svg width="40" height="40" viewBox="0 0 40 40" fill="none" xmlns="http://www.w3.org/2000/svg">
<path fill-rule="evenodd" clip-rule="evenodd" d="M29.807 11.993C29.807 12.9873 29.0009 13.793 28.007 13.793C27.013 13.793 26.207 12.9873 26.207 11.993C26.207 10.9988 27.013 10.193 28.007 10.193C29.0012 10.193 29.807 10.9988 29.807 11.993ZM20 24.9999C17.2386 24.9999 15.0001 22.7614 15.0001 20C15.0001 17.2386 17.2386 15.0001 20 15.0001C22.7614 15.0001 24.9999 17.2386 24.9999 20C24.9999 22.7614 22.7614 24.9999 20 24.9999ZM20 12.2973C15.7459 12.2973 12.2973 15.7459 12.2973 20C12.2973 24.2541 15.7459 27.7027 20 27.7027C24.2541 27.7027 27.7027 24.2541 27.7027 20C27.7027 15.7459 24.2541 12.2973 20 12.2973ZM20 7.70281C24.0052 7.70281 24.4796 7.71805 26.0612 7.79023C27.5237 7.85703 28.318 8.10125 28.8465 8.3068C29.5466 8.57891 30.0462 8.90398 30.5712 9.42898C31.0962 9.95375 31.4213 10.4534 31.6934 11.1538C31.8987 11.6823 32.1432 12.4766 32.21 13.9391C32.2822 15.5209 32.2974 15.9952 32.2974 20.0005C32.2974 24.0057 32.2822 24.4801 32.21 26.0616C32.1432 27.5241 31.899 28.3184 31.6934 28.847C31.4213 29.547 31.0962 30.0467 30.5712 30.5717C30.0465 31.0967 29.5468 31.4218 28.8465 31.6939C28.318 31.8992 27.5237 32.1437 26.0612 32.2105C24.4796 32.2827 24.0052 32.2979 20 32.2979C15.9945 32.2979 15.5202 32.2827 13.9386 32.2105C12.4761 32.1437 11.6818 31.8995 11.1533 31.6939C10.4532 31.4218 9.95352 31.0967 9.42852 30.5717C8.90375 30.047 8.57844 29.5473 8.30633 28.847C8.10102 28.3184 7.85656 27.5241 7.78977 26.0616C7.71758 24.4798 7.70234 24.0055 7.70234 20.0005C7.70234 15.9952 7.71758 15.5209 7.78977 13.9391C7.85656 12.4766 8.10078 11.6823 8.30633 11.1538C8.57844 10.4537 8.90352 9.95398 9.42852 9.42898C9.95328 8.90398 10.453 8.57891 11.1533 8.3068C11.6818 8.10148 12.4761 7.85703 13.9386 7.79023C15.5204 7.71805 15.9948 7.70281 20 7.70281ZM20 5C15.9263 5 15.4154 5.01734 13.8155 5.09023C12.219 5.16312 11.1284 5.41672 10.1745 5.7875C9.18805 6.1707 8.35156 6.68375 7.51766 7.51766C6.68375 8.35156 6.1707 9.18805 5.7875 10.1745C5.41672 11.1287 5.16312 12.219 5.09023 13.8155C5.01734 15.4154 5 15.9263 5 20C5 24.0737 5.01734 24.5846 5.09023 26.1845C5.16312 27.781 5.41672 28.8713 5.7875 29.8255C6.1707 30.812 6.68375 31.6484 7.51766 32.4823C8.35156 33.3163 9.18805 33.8291 10.1745 34.2125C11.1287 34.5833 12.219 34.8369 13.8155 34.9098C15.4154 34.9827 15.9263 35 20 35C24.0737 35 24.5846 34.9827 26.1845 34.9098C27.781 34.8369 28.8713 34.5833 29.8255 34.2125C30.812 33.8291 31.6484 33.3163 32.4823 32.4823C33.3163 31.6484 33.8291 30.812 34.2125 29.8255C34.5833 28.8713 34.8369 27.781 34.9098 26.1845C34.9827 24.5846 35 24.0737 35 20C35 15.9263 34.9827 15.4154 34.9098 13.8155C34.8369 12.219 34.5833 11.1287 34.2125 10.1745C33.8291 9.18805 33.3163 8.35156 32.4823 7.51766C31.6484 6.68375 30.812 6.17094 29.8255 5.7875C28.8713 5.41672 27.781 5.16312 26.1845 5.09023C24.5846 5.01734 24.0737 5 20 5Z" fill="#01FFC2"/>
</svg>
