<svg width="40" height="40" viewBox="0 0 40 40" fill="none" xmlns="http://www.w3.org/2000/svg">
<path d="M35.7987 9.75354C33.7121 10.4896 33.4542 10.3961 34.4506 9.27451C35.2111 8.52536 35.7921 7.61477 36.1503 6.61062C36.1503 6.52883 35.7869 6.61062 35.3649 6.87934C34.6717 7.22139 33.9501 7.50286 33.2081 7.72057L31.8835 8.14119L30.7112 7.32333C30.061 6.8806 29.3607 6.51588 28.6247 6.23674C27.2072 5.89202 25.7237 5.92425 24.3226 6.33021C22.8531 6.83335 21.5897 7.80283 20.7259 9.09011C19.862 10.3774 19.4455 11.9115 19.54 13.4573L19.6103 14.6257L18.4381 14.4855C13.9937 13.9366 9.86427 11.9116 6.71594 8.73706L5.08656 7.1247L4.67627 8.29308C4.22547 9.53514 4.12924 10.8775 4.39828 12.1708C4.66731 13.4642 5.29107 14.6577 6.20016 15.6188C7.18482 16.6586 6.9621 16.7871 5.26238 16.1913C4.67627 15.9927 4.1605 15.8408 4.09016 15.9226C4.16123 17.0718 4.46003 18.1956 4.96933 19.229C5.75459 20.5937 6.92434 21.6986 8.33359 22.407L9.50581 22.9678H8.07571C6.70421 22.9678 6.65733 22.9678 6.79799 23.517C7.2307 24.4808 7.86423 25.3419 8.65649 26.0429C9.44875 26.7439 10.3816 27.2689 11.3931 27.5829L12.917 28.097L11.5924 28.8915C9.58128 30.0339 7.31843 30.664 5.0045 30.7258C4.33015 30.6925 3.65456 30.7594 3 30.9245C4.45544 31.86 6.03323 32.5912 7.68887 33.0976C10.3604 33.9114 13.1694 34.1787 15.9472 33.8836C18.725 33.5884 21.4143 32.7369 23.8538 31.3801C27.489 29.0665 30.3467 25.7217 32.0593 21.7761C32.9907 19.4016 33.5558 16.9002 33.7356 14.3569C33.7356 13.1886 33.8059 13.06 35.1774 11.7047C35.8046 11.1195 36.381 10.4824 36.9005 9.80028C37.1115 9.33293 37.0881 9.33293 35.7987 9.75354Z" fill="#01FFC2"/>
</svg>
