<svg width="40" height="40" viewBox="0 0 40 40" fill="none" xmlns="http://www.w3.org/2000/svg">
<path d="M32.8221 8.32105C30.4638 7.24674 27.9349 6.45523 25.2908 6.0019C25.2427 5.99315 25.1946 6.01502 25.1698 6.05875C24.8445 6.63306 24.4843 7.38229 24.232 7.97119C21.3881 7.54848 18.5588 7.54848 15.7732 7.97119C15.5209 7.3692 15.1476 6.63306 14.8209 6.05875C14.7961 6.01648 14.748 5.99461 14.6998 6.0019C12.0572 6.45378 9.52832 7.24529 7.16861 8.32105C7.14818 8.32979 7.13067 8.34438 7.11905 8.36332C2.32231 15.4782 1.00829 22.4182 1.6529 29.2721C1.65582 29.3056 1.67478 29.3377 1.70103 29.3581C4.86578 31.6655 7.93138 33.0664 10.9401 33.9949C10.9882 34.0095 11.0392 33.992 11.0699 33.9526C11.7816 32.9877 12.416 31.9702 12.9599 30.9003C12.992 30.8376 12.9614 30.7633 12.8958 30.7385C11.8895 30.3595 10.9313 29.8974 10.0096 29.3727C9.93668 29.3304 9.93084 29.2269 9.99791 29.1773C10.1919 29.033 10.3859 28.8829 10.5711 28.7313C10.6046 28.7036 10.6513 28.6977 10.6907 28.7152C16.746 31.46 23.3015 31.46 29.2854 28.7152C29.3248 28.6963 29.3715 28.7021 29.4064 28.7298C29.5917 28.8814 29.7857 29.033 29.9811 29.1773C30.0482 29.2269 30.0438 29.3304 29.9709 29.3727C29.0492 29.9076 28.091 30.3595 27.0832 30.737C27.0176 30.7618 26.9884 30.8376 27.0205 30.9003C27.5761 31.9687 28.2106 32.9862 28.9091 33.9512C28.9383 33.992 28.9908 34.0095 29.0389 33.9949C32.0622 33.0664 35.1278 31.6655 38.2925 29.3581C38.3203 29.3377 38.3378 29.3071 38.3407 29.2735C39.1122 21.3496 37.0485 14.4666 32.8702 8.36477C32.8599 8.34438 32.8425 8.32979 32.8221 8.32105ZM13.8642 25.0988C12.0411 25.0988 10.539 23.4371 10.539 21.3963C10.539 19.3556 12.012 17.6939 13.8642 17.6939C15.7309 17.6939 17.2185 19.3702 17.1894 21.3963C17.1894 23.4371 15.7163 25.0988 13.8642 25.0988ZM26.1586 25.0988C24.3356 25.0988 22.8334 23.4371 22.8334 21.3963C22.8334 19.3556 24.3064 17.6939 26.1586 17.6939C28.0254 17.6939 29.5129 19.3702 29.4838 21.3963C29.4838 23.4371 28.0254 25.0988 26.1586 25.0988Z" fill="#01FFC2"/>
</svg>
