<svg width="40" height="40" viewBox="0 0 40 40" fill="none" xmlns="http://www.w3.org/2000/svg">
<path d="M16.2861 34.161C16.292 34.0703 16.292 33.9793 16.2861 33.8887V19.9527H13.4238V15.0982H16.3452V14.7312C16.3452 13.6419 16.3452 12.5525 16.3452 11.4632C16.3537 10.2628 16.6803 9.08609 17.2915 8.05325C17.8678 7.11109 18.7887 6.43138 19.8581 6.15884C20.4849 5.96845 21.1321 5.85314 21.786 5.81543C23.371 5.81543 24.9677 5.81543 26.5171 5.81543V10.67H26.2214H23.5839C23.4002 10.6793 23.2179 10.7071 23.0398 10.7529C22.7948 10.8052 22.5756 10.9414 22.4202 11.138C22.2647 11.3347 22.1826 11.5795 22.1881 11.8303C22.1881 12.8722 22.1881 13.9378 22.1881 14.9916C22.1881 14.9916 22.1881 14.9916 22.1881 15.0627H26.5763L26.0558 19.9527H22.1409V33.8295C22.1409 33.9479 22.1409 34.0663 22.1409 34.1847L16.2861 34.161Z" fill="#01FFC2"/>
</svg>
