<svg width="40" height="40" viewBox="0 0 40 40" fill="none" xmlns="http://www.w3.org/2000/svg">
<path d="M22.2078 20.0002C22.2078 25.5121 17.6758 29.9804 12.0857 29.9804C6.49555 29.9804 1.96326 25.5121 1.96326 20.0002C1.96326 14.4883 6.49521 10.0197 12.0857 10.0197C17.6762 10.0197 22.2078 14.4883 22.2078 20.0002Z" fill="#01FFC2"/>
<path d="M33.4941 20.0004C33.4941 25.1887 31.2281 29.3963 28.4329 29.3963C25.6376 29.3963 23.3716 25.1887 23.3716 20.0004C23.3716 14.8122 25.6373 10.6046 28.4325 10.6046C31.2278 10.6046 33.4941 14.8108 33.4941 20.0004Z" fill="#01FFC2"/>
<path d="M38.0368 20.0006C38.0368 24.648 37.24 28.4178 36.2568 28.4178C35.2735 28.4178 34.4771 24.649 34.4771 20.0006C34.4771 15.3522 35.2739 11.5834 36.2568 11.5834C37.2396 11.5834 38.0368 15.3518 38.0368 20.0006Z" fill="#01FFC2"/>
</svg>
