<svg width="40" height="40" viewBox="0 0 40 40" fill="none" xmlns="http://www.w3.org/2000/svg">
<path d="M5.14097 20.0244L12.2117 22.3297L14.9126 30.9823C15.24 31.9292 15.0763 32.3049 16.0322 32.3049C16.7688 32.3049 17.0962 31.9548 17.5055 31.5365C17.7657 31.2701 19.3126 29.7016 21.0404 27.9504L28.3943 33.6189C29.7472 34.3976 30.7244 33.9938 31.0616 32.3075L35.8906 8.5763C36.3816 6.5092 35.1351 5.5717 33.8444 6.1856L5.49373 17.5876C3.55889 18.397 3.57116 19.5223 5.14097 20.0244ZM29.2561 11.3094C30.0517 10.8065 30.7809 11.0772 30.1826 11.6313L16.5372 24.4745L16.006 30.3864L13.3207 21.7978L29.2561 11.3094Z" fill="#01FFC2"/>
</svg>
