<svg width="0"
  height="0"
  class="hidden">
  <symbol fill="none"
    xmlns="http://www.w3.org/2000/svg"
    viewBox="0 0 8 6"
    id="arrow1">
    <path d="M3.93005 0.5L0.430054 5.5H7.43005L3.93005 0.5Z"
      fill="#01FFC2"></path>
  </symbol>
  <symbol fill="none"
    xmlns="http://www.w3.org/2000/svg"
    viewBox="0 0 10 6"
    id="arrow2">
    <path d="M5 5.5L0 0.5H10L5 5.5Z"
      fill="currentColor"></path>
  </symbol>
  <symbol fill="none"
    xmlns="http://www.w3.org/2000/svg"
    viewBox="0 0 12 18"
    id="arrow3">
    <path d="M5.5207 9.80426e-07L12 1.90735e-06L6.4863 9.00407L12 18L5.5207 18L-1.57407e-06 9.00407L5.5207 9.80426e-07Z"
      fill="#7156FB"></path>
  </symbol>
  <symbol fill="none"
    xmlns="http://www.w3.org/2000/svg"
    viewBox="0 0 30 32"
    id="google-play">
    <path d="M21.9009 9.52052L4.85571 0.395006C3.96993 -0.0791828 3.00946 -0.103417 2.17816 0.199665L16.6999 14.7214L21.9009 9.52052Z"
      fill="#01FFC2"></path>
    <path d="M28.2581 12.9231L23.3482 10.2946L17.8112 15.8315L23.3482 21.3685L28.258 18.7399C30.5806 17.4965 30.5806 14.1665 28.2581 12.9231Z"
      fill="#01FFC2"></path>
    <path d="M0.849077 1.09082C0.328275 1.66322 0 2.42739 0 3.30293V28.3601C0 29.2357 0.328275 29.9999 0.849013 30.5723L15.5898 15.8315L0.849077 1.09082Z"
      fill="#01FFC2"></path>
    <path d="M2.17816 31.4647C3.0094 31.7677 3.96993 31.7436 4.85571 31.2693L21.9009 22.1438L16.7 16.9429L2.17816 31.4647Z"
      fill="#01FFC2"></path>
  </symbol>
  <symbol fill="none"
    xmlns="http://www.w3.org/2000/svg"
    viewBox="0 0 133 34"
    id="header1">
    <path fill-rule="evenodd"
      clip-rule="evenodd"
      d="M29.7444 5.21166L29.9234 6.29358C30.0644 7.30005 30.1297 8.3157 30.1189 9.33198C30.1177 11.5778 29.8468 13.8153 29.3119 15.9965C28.5886 18.9598 27.3287 21.7656 25.5948 24.2749C23.591 27.1569 20.6938 29.9915 16.4706 32.2691L15.954 32.5475L15.4374 32.2691C11.2142 29.9915 8.31819 27.1569 6.31326 24.2749C4.57926 21.7656 3.31943 18.9598 2.59607 15.9965C2.06134 13.8157 1.79041 11.5786 1.78913 9.33317C1.77821 8.31688 1.84357 7.30124 1.98465 6.29476L2.16357 5.21285C2.17884 5.12462 2.1765 5.03423 2.15669 4.9469C2.13688 4.85958 2.09998 4.77704 2.04812 4.70404C1.99626 4.63104 1.93047 4.56902 1.85453 4.52157C1.7786 4.47411 1.69403 4.44215 1.60569 4.42754C1.51735 4.41291 1.42699 4.41592 1.33982 4.43639C1.25264 4.45684 1.17039 4.49436 1.09778 4.54676C1.02517 4.59916 0.963648 4.66541 0.916759 4.7417C0.86987 4.81799 0.838541 4.9028 0.824577 4.99125L0.64565 6.07316C0.491748 7.15283 0.42005 8.24261 0.431175 9.33317C0.432027 11.6892 0.716083 14.0365 1.27723 16.3247C2.04108 19.4495 3.37081 22.4079 5.20059 25.0535C7.31573 28.0978 10.3836 31.0912 14.7987 33.4671L15.6376 33.9185C15.7365 33.972 15.847 34 15.9593 34C16.0716 34 16.1822 33.972 16.281 33.9185L17.1188 33.4671C21.5292 31.09 24.5982 28.0978 26.7169 25.0535C28.5458 22.4081 29.8747 19.4501 30.6378 16.3259C31.199 14.0377 31.4831 11.6904 31.4839 9.33436C31.4951 8.2438 31.4233 7.15402 31.2695 6.07436L31.0905 4.99244C31.0766 4.90398 31.0452 4.81917 30.9983 4.74289C30.9515 4.6666 30.8899 4.60035 30.8173 4.54795C30.7447 4.49555 30.6624 4.45803 30.5753 4.43757C30.4881 4.4171 30.3977 4.4141 30.3094 4.42872C30.2211 4.44334 30.1365 4.47529 30.0605 4.52275C29.9846 4.57021 29.9188 4.63222 29.867 4.70522C29.8152 4.77822 29.7783 4.86076 29.7584 4.94809C29.7386 5.03542 29.7363 5.1258 29.7516 5.21404L29.7444 5.21166Z"
      fill="white"></path>
    <path fill-rule="evenodd"
      clip-rule="evenodd"
      d="M5.87143 4.47459L15.9557 1.39358L26.265 4.54095C26.4376 4.59255 26.6236 4.57367 26.7824 4.48846C26.941 4.40324 27.0595 4.25862 27.1118 4.08624C27.1642 3.91387 27.1461 3.72778 27.0616 3.56871C26.9771 3.40963 26.833 3.29052 26.6608 3.23745L16.1535 0.0296403C16.0246 -0.00988009 15.8867 -0.00988009 15.7577 0.0296403L5.47447 3.16871C5.38853 3.19441 5.30852 3.23682 5.23901 3.29351C5.16951 3.35021 5.1119 3.42008 5.06947 3.4991C5.02704 3.57812 5.00064 3.66475 4.99177 3.754C4.98291 3.84326 4.99176 3.93338 5.01782 4.0192C5.04388 4.10503 5.08663 4.18486 5.14362 4.25412C5.20061 4.32338 5.27072 4.3807 5.34993 4.42279C5.42913 4.46488 5.51587 4.49091 5.60516 4.4994C5.69445 4.50787 5.78454 4.49864 5.87025 4.47222L5.87143 4.47459Z"
      fill="white"></path>
    <path fill-rule="evenodd"
      clip-rule="evenodd"
      d="M0.891937 5.41074L15.3493 33.6283C15.4056 33.7386 15.4912 33.8313 15.5965 33.8964C15.7019 33.9615 15.823 33.9965 15.9469 33.9976C16.0707 33.9987 16.1924 33.9659 16.299 33.9026C16.4054 33.8394 16.4926 33.7482 16.5509 33.6389L25.3675 17.1495L25.3805 17.1234L31.0237 5.39178C31.1001 5.22988 31.1096 5.04434 31.05 4.87548C30.9905 4.70662 30.8667 4.56809 30.7055 4.49003C30.5444 4.41196 30.359 4.40064 30.1895 4.45855C30.0201 4.51646 29.8804 4.63891 29.8007 4.79927L24.1671 16.5214L15.9738 31.8554L2.09948 4.78979C2.05949 4.70944 2.00396 4.6378 1.93609 4.57906C1.86822 4.52032 1.78937 4.47562 1.7041 4.44757C1.61884 4.41952 1.52886 4.40867 1.43936 4.41564C1.34988 4.42262 1.26266 4.44728 1.18277 4.48821C1.10288 4.52913 1.03191 4.5855 0.973961 4.65405C0.916015 4.7226 0.872248 4.80197 0.845197 4.88755C0.818146 4.97315 0.808348 5.06325 0.816371 5.15265C0.824395 5.24205 0.850079 5.32897 0.891937 5.40837V5.41074Z"
      fill="white"></path>
    <path fill-rule="evenodd"
      clip-rule="evenodd"
      d="M7.81236 17.9771H23.8892C24.0692 17.9771 24.2417 17.9057 24.3689 17.7784C24.4961 17.6512 24.5676 17.4787 24.5676 17.2987C24.5676 17.1188 24.4961 16.9463 24.3689 16.819C24.2417 16.6918 24.0692 16.6203 23.8892 16.6203H7.81236C7.63244 16.6203 7.45988 16.6918 7.33265 16.819C7.20543 16.9463 7.13395 17.1188 7.13395 17.2987C7.13395 17.4787 7.20543 17.6512 7.33265 17.7784C7.45988 17.9057 7.63244 17.9771 7.81236 17.9771Z"
      fill="white"></path>
    <path d="M87.9375 20.2628V23.5839C87.939 23.8322 87.8908 24.0782 87.7959 24.3078C87.701 24.5374 87.5625 24.7461 87.3865 24.9216C87.2113 25.0972 87.0024 25.2363 86.7728 25.3308C86.5433 25.4254 86.2969 25.4736 86.0489 25.4726H84.318L87.8747 29.6906H86.1905L82.6491 25.4726H78.4896C78.2839 25.4621 78.0788 25.4412 77.8753 25.4097V29.6906H76.5954V18.374H86.039C86.2877 18.373 86.5333 18.4212 86.7629 18.5158C86.9932 18.6104 87.2014 18.7494 87.3773 18.925C87.5526 19.1006 87.6918 19.3092 87.786 19.5388C87.8809 19.7684 87.9291 20.0145 87.9283 20.2628H87.9375ZM78.4939 24.1822H86.0489C86.1278 24.1832 86.2058 24.1684 86.2793 24.1386C86.352 24.1089 86.4185 24.0649 86.4744 24.0092C86.5303 23.9534 86.5739 23.887 86.6037 23.814C86.6336 23.741 86.6481 23.6627 86.6473 23.5839V20.2628C86.6481 20.1828 86.6336 20.1033 86.6045 20.029C86.5746 19.9547 86.5303 19.887 86.4744 19.8298C86.4201 19.7713 86.3543 19.7248 86.2808 19.6936C86.2073 19.6623 86.1278 19.647 86.0482 19.6485H78.4928C78.3301 19.6493 78.1744 19.7143 78.0593 19.8293C77.9443 19.9444 77.8793 20.1002 77.8785 20.2628V23.5839C77.8768 23.6637 77.8921 23.743 77.9234 23.8166C77.9546 23.8901 78.0011 23.9562 78.0598 24.0105C78.1171 24.0665 78.1849 24.1105 78.2595 24.14C78.334 24.1695 78.4137 24.1839 78.4939 24.1822Z"
      fill="white"></path>
    <path fill-rule="evenodd"
      clip-rule="evenodd"
      d="M94.7064 18.3579H106.035V19.6377H101.022V29.6958H99.7423V19.6377H94.7064V18.3579ZM112.901 29.6905V18.3579H114.181V29.6905H112.901ZM131.19 18.3579H132.828L128.09 24.0242L132.843 29.6905H131.19L126.972 24.6694H123.321V29.6905H122.032V18.3579H123.323V23.3779H126.975L131.19 18.3579Z"
      fill="white"></path>
    <path d="M51.5948 19.6334H42.1819C42.0193 19.6343 41.8635 19.6993 41.7484 19.8143C41.6334 19.9293 41.5685 20.0851 41.5676 20.2478V27.8028C41.5687 27.9654 41.6338 28.121 41.7488 28.2359C41.8637 28.351 42.0193 28.416 42.1819 28.4171H51.5948V29.6969H42.1819C41.9336 29.698 41.6875 29.65 41.4577 29.5555C41.2281 29.4609 41.0194 29.3219 40.8438 29.1462C40.6682 28.9706 40.5292 28.7619 40.4346 28.5323C40.3401 28.3026 40.292 28.0565 40.2932 27.8082V20.2531C40.292 20.0047 40.3401 19.7586 40.4346 19.529C40.5292 19.2993 40.6682 19.0906 40.8438 18.915C41.0194 18.7394 41.2281 18.6003 41.4577 18.5058C41.6875 18.4112 41.9336 18.3632 42.1819 18.3643H51.5948V19.6334Z"
      fill="white"></path>
    <path d="M69.2699 18.3579V19.6377H60.2047V23.3779H67.4909V24.6684H60.2036V28.415H69.2688V29.6948H58.9238V18.3579H69.2699Z"
      fill="white"></path>
    <path d="M57.9764 7.06113H54.8564L54.1844 8.55713H53.5684L56.1284 2.95713H56.7124L59.2724 8.55713H58.6484L57.9764 7.06113ZM57.7604 6.58113L56.4164 3.57313L55.0724 6.58113H57.7604ZM64.4976 8.60513C63.7722 8.60513 63.2069 8.39713 62.8016 7.98113C62.3962 7.56513 62.1936 6.9598 62.1936 6.16513V2.95713H62.7856V6.14113C62.7856 6.7918 62.9322 7.27713 63.2256 7.59713C63.5189 7.91713 63.9429 8.07713 64.4976 8.07713C65.0576 8.07713 65.4842 7.91713 65.7776 7.59713C66.0709 7.27713 66.2176 6.7918 66.2176 6.14113V2.95713H66.7936V6.16513C66.7936 6.9598 66.5909 7.56513 66.1856 7.98113C65.7856 8.39713 65.2229 8.60513 64.4976 8.60513ZM70.7375 2.95713H73.0175C73.6095 2.95713 74.1322 3.07713 74.5855 3.31713C75.0388 3.5518 75.3908 3.88246 75.6415 4.30913C75.8922 4.73046 76.0175 5.21313 76.0175 5.75713C76.0175 6.30113 75.8922 6.78646 75.6415 7.21313C75.3908 7.63446 75.0388 7.96513 74.5855 8.20513C74.1322 8.4398 73.6095 8.55713 73.0175 8.55713H70.7375V2.95713ZM72.9855 8.04513C73.4762 8.04513 73.9055 7.94913 74.2735 7.75713C74.6415 7.5598 74.9268 7.29046 75.1295 6.94913C75.3322 6.60246 75.4335 6.20513 75.4335 5.75713C75.4335 5.30913 75.3322 4.91446 75.1295 4.57313C74.9268 4.22646 74.6415 3.95713 74.2735 3.76513C73.9055 3.5678 73.4762 3.46913 72.9855 3.46913H71.3295V8.04513H72.9855ZM79.5069 2.95713H80.0989V8.55713H79.5069V2.95713ZM85.1689 3.46913H83.2009V2.95713H87.7289V3.46913H85.7609V8.55713H85.1689V3.46913ZM94.7947 8.04513V8.55713H90.8347V2.95713H94.6747V3.46913H91.4267V5.46113H94.3227V5.96513H91.4267V8.04513H94.7947ZM98.3462 2.95713H100.626C101.218 2.95713 101.741 3.07713 102.194 3.31713C102.648 3.5518 103 3.88246 103.25 4.30913C103.501 4.73046 103.626 5.21313 103.626 5.75713C103.626 6.30113 103.501 6.78646 103.25 7.21313C103 7.63446 102.648 7.96513 102.194 8.20513C101.741 8.4398 101.218 8.55713 100.626 8.55713H98.3462V2.95713ZM100.594 8.04513C101.085 8.04513 101.514 7.94913 101.882 7.75713C102.25 7.5598 102.536 7.29046 102.738 6.94913C102.941 6.60246 103.042 6.20513 103.042 5.75713C103.042 5.30913 102.941 4.91446 102.738 4.57313C102.536 4.22646 102.25 3.95713 101.882 3.76513C101.514 3.5678 101.085 3.46913 100.594 3.46913H98.9382V8.04513H100.594ZM114.897 5.66913C115.265 5.74913 115.548 5.90913 115.745 6.14913C115.948 6.3838 116.049 6.6878 116.049 7.06113C116.049 7.54113 115.871 7.9118 115.513 8.17313C115.161 8.42913 114.639 8.55713 113.945 8.55713H111.369V2.95713H113.785C114.409 2.95713 114.892 3.08246 115.233 3.33313C115.58 3.5838 115.753 3.93846 115.753 4.39713C115.753 4.70646 115.676 4.97046 115.521 5.18913C115.372 5.40246 115.164 5.56246 114.897 5.66913ZM111.961 3.44513V5.47713H113.745C114.199 5.47713 114.548 5.3918 114.793 5.22113C115.039 5.04513 115.161 4.7918 115.161 4.46113C115.161 4.13046 115.039 3.8798 114.793 3.70913C114.548 3.53313 114.199 3.44513 113.745 3.44513H111.961ZM113.937 8.06913C114.439 8.06913 114.817 7.9838 115.073 7.81313C115.329 7.64246 115.457 7.3758 115.457 7.01313C115.457 6.31446 114.951 5.96513 113.937 5.96513H111.961V8.06913H113.937ZM121.363 6.62113V8.55713H120.779V6.62113L118.539 2.95713H119.171L121.091 6.10113L123.011 2.95713H123.603L121.363 6.62113Z"
      fill="white"></path>
    <path d="M43.888 1.88892L47.338 2.75143C47.5299 2.79961 47.6668 2.99091 47.6668 3.21245V7.92983C47.6668 8.87737 47.2456 9.76256 46.5449 10.2878L43.888 12.2807L41.231 10.2878C40.5298 9.76209 40.1091 8.87737 40.1091 7.9303V3.21245C40.1091 2.99091 40.246 2.79961 40.4379 2.75143L43.888 1.88892Z"
      fill="#7156FB"></path>
    <path d="M41.9971 6.76186L43.543 8.2194L46.2482 5.6687"
      stroke="white"
      stroke-width="1.3365"></path>
  </symbol>
  <symbol fill="none"
    xmlns="http://www.w3.org/2000/svg"
    viewBox="0 0 37 28"
    id="social1">
    <path d="M31.3221 2.32105C28.9638 1.24674 26.4349 0.45523 23.7908 0.00190165C23.7427 -0.00684744 23.6946 0.015017 23.6698 0.0587469C23.3445 0.633057 22.9843 1.38229 22.732 1.97119C19.8881 1.54848 17.0588 1.54848 14.2732 1.97119C14.0209 1.3692 13.6476 0.633057 13.3209 0.0587469C13.2961 0.0164761 13.248 -0.00538839 13.1998 0.00190165C10.5572 0.453781 8.02832 1.24529 5.66861 2.32105C5.64818 2.32979 5.63067 2.34438 5.61905 2.36332C0.822312 9.47818 -0.491715 16.4182 0.152903 23.2721C0.155819 23.3056 0.174779 23.3377 0.20103 23.3581C3.36578 25.6655 6.43138 27.0664 9.44005 27.9949C9.48821 28.0095 9.53923 27.992 9.56987 27.9526C10.2816 26.9877 10.916 25.9702 11.4599 24.9003C11.492 24.8376 11.4614 24.7633 11.3958 24.7385C10.3895 24.3595 9.4313 23.8974 8.50958 23.3727C8.43668 23.3304 8.43084 23.2269 8.49791 23.1773C8.69187 23.033 8.88589 22.8829 9.0711 22.7313C9.10461 22.7036 9.1513 22.6977 9.1907 22.7152C15.246 25.46 21.8015 25.46 27.7854 22.7152C27.8248 22.6963 27.8715 22.7021 27.9064 22.7298C28.0917 22.8814 28.2857 23.033 28.4811 23.1773C28.5482 23.2269 28.5438 23.3304 28.4709 23.3727C27.5492 23.9076 26.591 24.3595 25.5832 24.737C25.5176 24.7618 25.4884 24.8376 25.5205 24.9003C26.0761 25.9687 26.7106 26.9862 27.4091 27.9512C27.4383 27.992 27.4908 28.0095 27.5389 27.9949C30.5622 27.0664 33.6278 25.6655 36.7925 23.3581C36.8203 23.3377 36.8378 23.3071 36.8407 23.2735C37.6122 15.3496 35.5485 8.46657 31.3702 2.36477C31.3599 2.34438 31.3425 2.32979 31.3221 2.32105ZM12.3642 19.0988C10.5411 19.0988 9.039 17.4371 9.039 15.3963C9.039 13.3556 10.512 11.6939 12.3642 11.6939C14.2309 11.6939 15.7185 13.3702 15.6894 15.3963C15.6894 17.4371 14.2163 19.0988 12.3642 19.0988ZM24.6586 19.0988C22.8356 19.0988 21.3334 17.4371 21.3334 15.3963C21.3334 13.3556 22.8064 11.6939 24.6586 11.6939C26.5254 11.6939 28.0129 13.3702 27.9838 15.3963C27.9838 17.4371 26.5254 19.0988 24.6586 19.0988Z"
      fill="#01FFC2"></path>
  </symbol>
  <symbol fill="none"
    xmlns="http://www.w3.org/2000/svg"
    viewBox="0 0 32 28"
    id="social2">
    <path d="M1.14097 14.0244L8.21166 16.3297L10.9126 24.9823C11.24 25.9292 11.0763 26.3049 12.0322 26.3049C12.7689 26.3049 13.0962 25.9548 13.5055 25.5365C13.7657 25.2701 15.3126 23.7016 17.0404 21.9504L24.3943 27.6189C25.7472 28.3976 26.7244 27.9938 27.0616 26.3075L31.8906 2.5763C32.3816 0.509198 31.1351 -0.428299 29.8444 0.185599L1.49373 11.5876C-0.441113 12.397 -0.428836 13.5223 1.14097 14.0244ZM25.2561 5.30939C26.0517 4.80649 26.7809 5.07715 26.1826 5.63128L12.5372 18.4745L12.006 24.3864L9.32067 15.7978L25.2561 5.30939Z"
      fill="#01FFC2"></path>
  </symbol>
  <symbol fill="none"
    xmlns="http://www.w3.org/2000/svg"
    viewBox="0 0 34 28"
    id="social3">
    <path d="M32.7987 3.75354C30.7121 4.48962 30.4542 4.39615 31.4506 3.27451C32.2111 2.52536 32.7921 1.61477 33.1503 0.610619C33.1503 0.528832 32.7869 0.610618 32.3649 0.879344C31.6717 1.22139 30.9501 1.50286 30.2081 1.72057L28.8835 2.14119L27.7112 1.32333C27.061 0.880596 26.3607 0.515879 25.6247 0.23674C24.2072 -0.107976 22.7237 -0.0757453 21.3226 0.330209C19.8531 0.833346 18.5897 1.80283 17.7259 3.09011C16.862 4.37739 16.4455 5.91147 16.54 7.45729L16.6103 8.62566L15.4381 8.48545C10.9937 7.93662 6.86427 5.91162 3.71594 2.73706L2.08656 1.1247L1.67627 2.29308C1.22547 3.53514 1.12924 4.87751 1.39828 6.17084C1.66731 7.46417 2.29107 8.65774 3.20016 9.61877C4.18482 10.6586 3.9621 10.7871 2.26238 10.1913C1.67627 9.99266 1.1605 9.84077 1.09016 9.92255C1.16123 11.0718 1.46003 12.1956 1.96933 13.229C2.75459 14.5937 3.92434 15.6986 5.33359 16.407L6.50581 16.9678H5.07571C3.70421 16.9678 3.65733 16.9678 3.79799 17.517C4.2307 18.4808 4.86423 19.3419 5.65649 20.0429C6.44875 20.7439 7.38161 21.2689 8.39308 21.5829L9.91697 22.097L8.59236 22.8915C6.58128 24.0339 4.31843 24.664 2.0045 24.7258C1.33015 24.6925 0.654563 24.7594 0 24.9245C1.45544 25.86 3.03323 26.5912 4.68887 27.0976C7.36044 27.9114 10.1694 28.1787 12.9472 27.8836C15.725 27.5884 18.4143 26.7369 20.8538 25.3801C24.489 23.0665 27.3467 19.7217 29.0593 15.7761C29.9907 13.4016 30.5558 10.9002 30.7356 8.35693C30.7356 7.18856 30.8059 7.06004 32.1774 5.70473C32.8046 5.11946 33.381 4.48238 33.9005 3.80028C34.1115 3.33293 34.0881 3.33293 32.7987 3.75354Z"
      fill="#01FFC2"></path>
  </symbol>
  <symbol fill="none"
    xmlns="http://www.w3.org/2000/svg"
    viewBox="0 0 14 29"
    id="social4">
    <path d="M2.9619 28.3456C2.96773 28.2549 2.96773 28.1639 2.9619 28.0732V14.1373H0.0996094V9.28278H3.02103V8.91573C3.02103 7.82643 3.02103 6.73712 3.02103 5.64782C3.0295 4.44737 3.35608 3.27066 3.9673 2.23782C4.54355 1.29566 5.46444 0.61595 6.5339 0.343413C7.16071 0.153016 7.80788 0.0377078 8.46183 0C10.0467 0 11.6435 0 13.1929 0V4.85454H12.8972H10.2597C10.076 4.86385 9.89369 4.89162 9.71556 4.93743C9.47053 4.98974 9.2514 5.12593 9.09595 5.32261C8.9405 5.5193 8.85842 5.76412 8.86393 6.01486C8.86393 7.0568 8.86393 8.1224 8.86393 9.17618C8.86393 9.17618 8.86393 9.17618 8.86393 9.24722H13.252L12.7316 14.1373H8.81664V28.014C8.81664 28.1324 8.81664 28.2508 8.81664 28.3692L2.9619 28.3456Z"
      fill="#01FFC2"></path>
  </symbol>
  <symbol fill="none"
    xmlns="http://www.w3.org/2000/svg"
    viewBox="0 0 30 30"
    id="social5">
    <path fill-rule="evenodd"
      clip-rule="evenodd"
      d="M24.807 6.99305C24.807 7.98727 24.0009 8.79305 23.007 8.79305C22.013 8.79305 21.207 7.98727 21.207 6.99305C21.207 5.99883 22.013 5.19305 23.007 5.19305C24.0012 5.19305 24.807 5.99883 24.807 6.99305ZM15 19.9999C12.2386 19.9999 10.0001 17.7614 10.0001 15C10.0001 12.2386 12.2386 10.0001 15 10.0001C17.7614 10.0001 19.9999 12.2386 19.9999 15C19.9999 17.7614 17.7614 19.9999 15 19.9999ZM15 7.29727C10.7459 7.29727 7.29727 10.7459 7.29727 15C7.29727 19.2541 10.7459 22.7027 15 22.7027C19.2541 22.7027 22.7027 19.2541 22.7027 15C22.7027 10.7459 19.2541 7.29727 15 7.29727ZM15 2.70281C19.0052 2.70281 19.4796 2.71805 21.0612 2.79023C22.5237 2.85703 23.318 3.10125 23.8465 3.3068C24.5466 3.57891 25.0462 3.90398 25.5712 4.42898C26.0962 4.95375 26.4213 5.45344 26.6934 6.15375C26.8988 6.68227 27.1432 7.47656 27.21 8.93906C27.2822 10.5209 27.2974 10.9952 27.2974 15.0005C27.2974 19.0057 27.2822 19.4801 27.21 21.0616C27.1432 22.5241 26.899 23.3184 26.6934 23.847C26.4213 24.547 26.0962 25.0467 25.5712 25.5717C25.0465 26.0967 24.5468 26.4218 23.8465 26.6939C23.318 26.8992 22.5237 27.1437 21.0612 27.2105C19.4796 27.2827 19.0052 27.2979 15 27.2979C10.9945 27.2979 10.5202 27.2827 8.93859 27.2105C7.47609 27.1437 6.6818 26.8995 6.15328 26.6939C5.4532 26.4218 4.95352 26.0967 4.42852 25.5717C3.90375 25.047 3.57844 24.5473 3.30633 23.847C3.10102 23.3184 2.85656 22.5241 2.78977 21.0616C2.71758 19.4798 2.70234 19.0055 2.70234 15.0005C2.70234 10.9952 2.71758 10.5209 2.78977 8.93906C2.85656 7.47656 3.10078 6.68227 3.30633 6.15375C3.57844 5.45367 3.90352 4.95398 4.42852 4.42898C4.95328 3.90398 5.45297 3.57891 6.15328 3.3068C6.6818 3.10148 7.47609 2.85703 8.93859 2.79023C10.5204 2.71805 10.9948 2.70281 15 2.70281ZM15 0C10.9263 0 10.4154 0.0173438 8.81555 0.0902344C7.21898 0.163125 6.12844 0.416719 5.17453 0.7875C4.18805 1.1707 3.35156 1.68375 2.51766 2.51766C1.68375 3.35156 1.1707 4.18805 0.7875 5.17453C0.416719 6.12867 0.163125 7.21898 0.0902344 8.81555C0.0173438 10.4154 0 10.9263 0 15C0 19.0737 0.0173438 19.5846 0.0902344 21.1845C0.163125 22.781 0.416719 23.8713 0.7875 24.8255C1.1707 25.812 1.68375 26.6484 2.51766 27.4823C3.35156 28.3162 4.18805 28.8291 5.17453 29.2125C6.12867 29.5833 7.21898 29.8369 8.81555 29.9098C10.4154 29.9827 10.9263 30 15 30C19.0737 30 19.5846 29.9827 21.1845 29.9098C22.781 29.8369 23.8713 29.5833 24.8255 29.2125C25.812 28.8291 26.6484 28.3162 27.4823 27.4823C28.3162 26.6484 28.8291 25.812 29.2125 24.8255C29.5833 23.8713 29.8369 22.781 29.9098 21.1845C29.9827 19.5846 30 19.0737 30 15C30 10.9263 29.9827 10.4154 29.9098 8.81555C29.8369 7.21898 29.5833 6.12867 29.2125 5.17453C28.8291 4.18805 28.3162 3.35156 27.4823 2.51766C26.6484 1.68375 25.812 1.17094 24.8255 0.7875C23.8713 0.416719 22.781 0.163125 21.1845 0.0902344C19.5846 0.0173438 19.0737 0 15 0Z"
      fill="#01FFC2"></path>
  </symbol>
  <symbol fill="none"
    xmlns="http://www.w3.org/2000/svg"
    viewBox="0 0 37 20"
    id="social6">
    <path d="M20.4271 9.98052C20.4271 15.4924 15.8952 19.9607 10.305 19.9607C4.71491 19.9607 0.182617 15.4924 0.182617 9.98052C0.182617 4.4686 4.71457 0 10.305 0C15.8955 0 20.4271 4.4686 20.4271 9.98052Z"
      fill="#01FFC2"></path>
    <path d="M31.5308 9.98084C31.5308 15.1691 29.2648 19.3767 26.4696 19.3767C23.6744 19.3767 21.4084 15.1691 21.4084 9.98084C21.4084 4.79256 23.674 0.584961 26.4693 0.584961C29.2645 0.584961 31.5305 4.79122 31.5305 9.98084"
      fill="#01FFC2"></path>
    <path d="M36.0735 9.98096C36.0735 14.6284 35.2767 18.3982 34.2935 18.3982C33.3103 18.3982 32.5138 14.6294 32.5138 9.98096C32.5138 5.33252 33.3106 1.56372 34.2935 1.56372C35.2764 1.56372 36.0735 5.33218 36.0735 9.98096Z"
      fill="#01FFC2"></path>
  </symbol>
</svg>