<svg width="0"
  height="0"
  class="hidden">
  <symbol fill="none"
    xmlns="http://www.w3.org/2000/svg"
    viewBox="0 0 8 6"
    id="arrow1">
    <path d="M3.93005 0.5L0.430054 5.5H7.43005L3.93005 0.5Z"
      fill="#01FFC2"></path>
  </symbol>
  <symbol fill="none"
    xmlns="http://www.w3.org/2000/svg"
    viewBox="0 0 10 6"
    id="arrow2">
    <path d="M5 5.5L0 0.5H10L5 5.5Z"
      fill="currentColor"></path>
  </symbol>
  <symbol fill="none"
    xmlns="http://www.w3.org/2000/svg"
    viewBox="0 0 12 18"
    id="arrow3">
    <path d="M5.5207 9.80426e-07L12 1.90735e-06L6.4863 9.00407L12 18L5.5207 18L-1.57407e-06 9.00407L5.5207 9.80426e-07Z"
      fill="#7156FB"></path>
  </symbol>
  <symbol fill="none"
    xmlns="http://www.w3.org/2000/svg"
    viewBox="0 0 133 34"
    id="header1">
    <path fill-rule="evenodd"
      clip-rule="evenodd"
      d="M29.7444 5.21166L29.9234 6.29358C30.0644 7.30005 30.1297 8.3157 30.1189 9.33198C30.1177 11.5778 29.8468 13.8153 29.3119 15.9965C28.5886 18.9598 27.3287 21.7656 25.5948 24.2749C23.591 27.1569 20.6938 29.9915 16.4706 32.2691L15.954 32.5475L15.4374 32.2691C11.2142 29.9915 8.31819 27.1569 6.31326 24.2749C4.57926 21.7656 3.31943 18.9598 2.59607 15.9965C2.06134 13.8157 1.79041 11.5786 1.78913 9.33317C1.77821 8.31688 1.84357 7.30124 1.98465 6.29476L2.16357 5.21285C2.17884 5.12462 2.1765 5.03423 2.15669 4.9469C2.13688 4.85958 2.09998 4.77704 2.04812 4.70404C1.99626 4.63104 1.93047 4.56902 1.85453 4.52157C1.7786 4.47411 1.69403 4.44215 1.60569 4.42754C1.51735 4.41291 1.42699 4.41592 1.33982 4.43639C1.25264 4.45684 1.17039 4.49436 1.09778 4.54676C1.02517 4.59916 0.963648 4.66541 0.916759 4.7417C0.86987 4.81799 0.838541 4.9028 0.824577 4.99125L0.64565 6.07316C0.491748 7.15283 0.42005 8.24261 0.431175 9.33317C0.432027 11.6892 0.716083 14.0365 1.27723 16.3247C2.04108 19.4495 3.37081 22.4079 5.20059 25.0535C7.31573 28.0978 10.3836 31.0912 14.7987 33.4671L15.6376 33.9185C15.7365 33.972 15.847 34 15.9593 34C16.0716 34 16.1822 33.972 16.281 33.9185L17.1188 33.4671C21.5292 31.09 24.5982 28.0978 26.7169 25.0535C28.5458 22.4081 29.8747 19.4501 30.6378 16.3259C31.199 14.0377 31.4831 11.6904 31.4839 9.33436C31.4951 8.2438 31.4233 7.15402 31.2695 6.07436L31.0905 4.99244C31.0766 4.90398 31.0452 4.81917 30.9983 4.74289C30.9515 4.6666 30.8899 4.60035 30.8173 4.54795C30.7447 4.49555 30.6624 4.45803 30.5753 4.43757C30.4881 4.4171 30.3977 4.4141 30.3094 4.42872C30.2211 4.44334 30.1365 4.47529 30.0605 4.52275C29.9846 4.57021 29.9188 4.63222 29.867 4.70522C29.8152 4.77822 29.7783 4.86076 29.7584 4.94809C29.7386 5.03542 29.7363 5.1258 29.7516 5.21404L29.7444 5.21166Z"
      fill="white"></path>
    <path fill-rule="evenodd"
      clip-rule="evenodd"
      d="M5.87143 4.47459L15.9557 1.39358L26.265 4.54095C26.4376 4.59255 26.6236 4.57367 26.7824 4.48846C26.941 4.40324 27.0595 4.25862 27.1118 4.08624C27.1642 3.91387 27.1461 3.72778 27.0616 3.56871C26.9771 3.40963 26.833 3.29052 26.6608 3.23745L16.1535 0.0296403C16.0246 -0.00988009 15.8867 -0.00988009 15.7577 0.0296403L5.47447 3.16871C5.38853 3.19441 5.30852 3.23682 5.23901 3.29351C5.16951 3.35021 5.1119 3.42008 5.06947 3.4991C5.02704 3.57812 5.00064 3.66475 4.99177 3.754C4.98291 3.84326 4.99176 3.93338 5.01782 4.0192C5.04388 4.10503 5.08663 4.18486 5.14362 4.25412C5.20061 4.32338 5.27072 4.3807 5.34993 4.42279C5.42913 4.46488 5.51587 4.49091 5.60516 4.4994C5.69445 4.50787 5.78454 4.49864 5.87025 4.47222L5.87143 4.47459Z"
      fill="white"></path>
    <path fill-rule="evenodd"
      clip-rule="evenodd"
      d="M0.891937 5.41074L15.3493 33.6283C15.4056 33.7386 15.4912 33.8313 15.5965 33.8964C15.7019 33.9615 15.823 33.9965 15.9469 33.9976C16.0707 33.9987 16.1924 33.9659 16.299 33.9026C16.4054 33.8394 16.4926 33.7482 16.5509 33.6389L25.3675 17.1495L25.3805 17.1234L31.0237 5.39178C31.1001 5.22988 31.1096 5.04434 31.05 4.87548C30.9905 4.70662 30.8667 4.56809 30.7055 4.49003C30.5444 4.41196 30.359 4.40064 30.1895 4.45855C30.0201 4.51646 29.8804 4.63891 29.8007 4.79927L24.1671 16.5214L15.9738 31.8554L2.09948 4.78979C2.05949 4.70944 2.00396 4.6378 1.93609 4.57906C1.86822 4.52032 1.78937 4.47562 1.7041 4.44757C1.61884 4.41952 1.52886 4.40867 1.43936 4.41564C1.34988 4.42262 1.26266 4.44728 1.18277 4.48821C1.10288 4.52913 1.03191 4.5855 0.973961 4.65405C0.916015 4.7226 0.872248 4.80197 0.845197 4.88755C0.818146 4.97315 0.808348 5.06325 0.816371 5.15265C0.824395 5.24205 0.850079 5.32897 0.891937 5.40837V5.41074Z"
      fill="white"></path>
    <path fill-rule="evenodd"
      clip-rule="evenodd"
      d="M7.81236 17.9771H23.8892C24.0692 17.9771 24.2417 17.9057 24.3689 17.7784C24.4961 17.6512 24.5676 17.4787 24.5676 17.2987C24.5676 17.1188 24.4961 16.9463 24.3689 16.819C24.2417 16.6918 24.0692 16.6203 23.8892 16.6203H7.81236C7.63244 16.6203 7.45988 16.6918 7.33265 16.819C7.20543 16.9463 7.13395 17.1188 7.13395 17.2987C7.13395 17.4787 7.20543 17.6512 7.33265 17.7784C7.45988 17.9057 7.63244 17.9771 7.81236 17.9771Z"
      fill="white"></path>
    <path d="M87.9375 20.2628V23.5839C87.939 23.8322 87.8908 24.0782 87.7959 24.3078C87.701 24.5374 87.5625 24.7461 87.3865 24.9216C87.2113 25.0972 87.0024 25.2363 86.7728 25.3308C86.5433 25.4254 86.2969 25.4736 86.0489 25.4726H84.318L87.8747 29.6906H86.1905L82.6491 25.4726H78.4896C78.2839 25.4621 78.0788 25.4412 77.8753 25.4097V29.6906H76.5954V18.374H86.039C86.2877 18.373 86.5333 18.4212 86.7629 18.5158C86.9932 18.6104 87.2014 18.7494 87.3773 18.925C87.5526 19.1006 87.6918 19.3092 87.786 19.5388C87.8809 19.7684 87.9291 20.0145 87.9283 20.2628H87.9375ZM78.4939 24.1822H86.0489C86.1278 24.1832 86.2058 24.1684 86.2793 24.1386C86.352 24.1089 86.4185 24.0649 86.4744 24.0092C86.5303 23.9534 86.5739 23.887 86.6037 23.814C86.6336 23.741 86.6481 23.6627 86.6473 23.5839V20.2628C86.6481 20.1828 86.6336 20.1033 86.6045 20.029C86.5746 19.9547 86.5303 19.887 86.4744 19.8298C86.4201 19.7713 86.3543 19.7248 86.2808 19.6936C86.2073 19.6623 86.1278 19.647 86.0482 19.6485H78.4928C78.3301 19.6493 78.1744 19.7143 78.0593 19.8293C77.9443 19.9444 77.8793 20.1002 77.8785 20.2628V23.5839C77.8768 23.6637 77.8921 23.743 77.9234 23.8166C77.9546 23.8901 78.0011 23.9562 78.0598 24.0105C78.1171 24.0665 78.1849 24.1105 78.2595 24.14C78.334 24.1695 78.4137 24.1839 78.4939 24.1822Z"
      fill="white"></path>
    <path fill-rule="evenodd"
      clip-rule="evenodd"
      d="M94.7064 18.3579H106.035V19.6377H101.022V29.6958H99.7423V19.6377H94.7064V18.3579ZM112.901 29.6905V18.3579H114.181V29.6905H112.901ZM131.19 18.3579H132.828L128.09 24.0242L132.843 29.6905H131.19L126.972 24.6694H123.321V29.6905H122.032V18.3579H123.323V23.3779H126.975L131.19 18.3579Z"
      fill="white"></path>
    <path d="M51.5948 19.6334H42.1819C42.0193 19.6343 41.8635 19.6993 41.7484 19.8143C41.6334 19.9293 41.5685 20.0851 41.5676 20.2478V27.8028C41.5687 27.9654 41.6338 28.121 41.7488 28.2359C41.8637 28.351 42.0193 28.416 42.1819 28.4171H51.5948V29.6969H42.1819C41.9336 29.698 41.6875 29.65 41.4577 29.5555C41.2281 29.4609 41.0194 29.3219 40.8438 29.1462C40.6682 28.9706 40.5292 28.7619 40.4346 28.5323C40.3401 28.3026 40.292 28.0565 40.2932 27.8082V20.2531C40.292 20.0047 40.3401 19.7586 40.4346 19.529C40.5292 19.2993 40.6682 19.0906 40.8438 18.915C41.0194 18.7394 41.2281 18.6003 41.4577 18.5058C41.6875 18.4112 41.9336 18.3632 42.1819 18.3643H51.5948V19.6334Z"
      fill="white"></path>
    <path d="M69.2699 18.3579V19.6377H60.2047V23.3779H67.4909V24.6684H60.2036V28.415H69.2688V29.6948H58.9238V18.3579H69.2699Z"
      fill="white"></path>
    <path d="M57.9764 7.06113H54.8564L54.1844 8.55713H53.5684L56.1284 2.95713H56.7124L59.2724 8.55713H58.6484L57.9764 7.06113ZM57.7604 6.58113L56.4164 3.57313L55.0724 6.58113H57.7604ZM64.4976 8.60513C63.7722 8.60513 63.2069 8.39713 62.8016 7.98113C62.3962 7.56513 62.1936 6.9598 62.1936 6.16513V2.95713H62.7856V6.14113C62.7856 6.7918 62.9322 7.27713 63.2256 7.59713C63.5189 7.91713 63.9429 8.07713 64.4976 8.07713C65.0576 8.07713 65.4842 7.91713 65.7776 7.59713C66.0709 7.27713 66.2176 6.7918 66.2176 6.14113V2.95713H66.7936V6.16513C66.7936 6.9598 66.5909 7.56513 66.1856 7.98113C65.7856 8.39713 65.2229 8.60513 64.4976 8.60513ZM70.7375 2.95713H73.0175C73.6095 2.95713 74.1322 3.07713 74.5855 3.31713C75.0388 3.5518 75.3908 3.88246 75.6415 4.30913C75.8922 4.73046 76.0175 5.21313 76.0175 5.75713C76.0175 6.30113 75.8922 6.78646 75.6415 7.21313C75.3908 7.63446 75.0388 7.96513 74.5855 8.20513C74.1322 8.4398 73.6095 8.55713 73.0175 8.55713H70.7375V2.95713ZM72.9855 8.04513C73.4762 8.04513 73.9055 7.94913 74.2735 7.75713C74.6415 7.5598 74.9268 7.29046 75.1295 6.94913C75.3322 6.60246 75.4335 6.20513 75.4335 5.75713C75.4335 5.30913 75.3322 4.91446 75.1295 4.57313C74.9268 4.22646 74.6415 3.95713 74.2735 3.76513C73.9055 3.5678 73.4762 3.46913 72.9855 3.46913H71.3295V8.04513H72.9855ZM79.5069 2.95713H80.0989V8.55713H79.5069V2.95713ZM85.1689 3.46913H83.2009V2.95713H87.7289V3.46913H85.7609V8.55713H85.1689V3.46913ZM94.7947 8.04513V8.55713H90.8347V2.95713H94.6747V3.46913H91.4267V5.46113H94.3227V5.96513H91.4267V8.04513H94.7947ZM98.3462 2.95713H100.626C101.218 2.95713 101.741 3.07713 102.194 3.31713C102.648 3.5518 103 3.88246 103.25 4.30913C103.501 4.73046 103.626 5.21313 103.626 5.75713C103.626 6.30113 103.501 6.78646 103.25 7.21313C103 7.63446 102.648 7.96513 102.194 8.20513C101.741 8.4398 101.218 8.55713 100.626 8.55713H98.3462V2.95713ZM100.594 8.04513C101.085 8.04513 101.514 7.94913 101.882 7.75713C102.25 7.5598 102.536 7.29046 102.738 6.94913C102.941 6.60246 103.042 6.20513 103.042 5.75713C103.042 5.30913 102.941 4.91446 102.738 4.57313C102.536 4.22646 102.25 3.95713 101.882 3.76513C101.514 3.5678 101.085 3.46913 100.594 3.46913H98.9382V8.04513H100.594ZM114.897 5.66913C115.265 5.74913 115.548 5.90913 115.745 6.14913C115.948 6.3838 116.049 6.6878 116.049 7.06113C116.049 7.54113 115.871 7.9118 115.513 8.17313C115.161 8.42913 114.639 8.55713 113.945 8.55713H111.369V2.95713H113.785C114.409 2.95713 114.892 3.08246 115.233 3.33313C115.58 3.5838 115.753 3.93846 115.753 4.39713C115.753 4.70646 115.676 4.97046 115.521 5.18913C115.372 5.40246 115.164 5.56246 114.897 5.66913ZM111.961 3.44513V5.47713H113.745C114.199 5.47713 114.548 5.3918 114.793 5.22113C115.039 5.04513 115.161 4.7918 115.161 4.46113C115.161 4.13046 115.039 3.8798 114.793 3.70913C114.548 3.53313 114.199 3.44513 113.745 3.44513H111.961ZM113.937 8.06913C114.439 8.06913 114.817 7.9838 115.073 7.81313C115.329 7.64246 115.457 7.3758 115.457 7.01313C115.457 6.31446 114.951 5.96513 113.937 5.96513H111.961V8.06913H113.937ZM121.363 6.62113V8.55713H120.779V6.62113L118.539 2.95713H119.171L121.091 6.10113L123.011 2.95713H123.603L121.363 6.62113Z"
      fill="white"></path>
    <path d="M43.888 1.88892L47.338 2.75143C47.5299 2.79961 47.6668 2.99091 47.6668 3.21245V7.92983C47.6668 8.87737 47.2456 9.76256 46.5449 10.2878L43.888 12.2807L41.231 10.2878C40.5298 9.76209 40.1091 8.87737 40.1091 7.9303V3.21245C40.1091 2.99091 40.246 2.79961 40.4379 2.75143L43.888 1.88892Z"
      fill="#7156FB"></path>
    <path d="M41.9971 6.76186L43.543 8.2194L46.2482 5.6687"
      stroke="white"
      stroke-width="1.3365"></path>
  </symbol>
  <symbol fill="none"
    xmlns="http://www.w3.org/2000/svg"
    viewBox="0 0 40 40"
    id="google-play">
    <path d="M26.9009 13.6884L9.85568 4.56285C8.9699 4.08866 8.00944 4.06443 7.17814 4.36751L21.6999 18.8893L26.9009 13.6884Z"
      fill="#01FFC2"></path>
    <path d="M33.2581 17.0909L28.3482 14.4624L22.8112 19.9993L28.3482 25.5363L33.258 22.9077C35.5806 21.6643 35.5806 18.3343 33.2581 17.0909Z"
      fill="#01FFC2"></path>
    <path d="M5.84908 5.25871C5.32827 5.83112 5 6.59528 5 7.47083V32.528C5 33.4036 5.32827 34.1678 5.84901 34.7402L20.5898 19.9994L5.84908 5.25871Z"
      fill="#01FFC2"></path>
    <path d="M7.17814 35.6324C8.00938 35.9355 8.9699 35.9114 9.85568 35.4371L26.9009 26.3116L21.7 21.1107L7.17814 35.6324Z"
      fill="#01FFC2"></path>
  </symbol>
  <symbol fill="none"
    xmlns="http://www.w3.org/2000/svg"
    viewBox="0 0 40 40"
    id="social1">
    <path d="M32.8221 8.32105C30.4638 7.24674 27.9349 6.45523 25.2908 6.0019C25.2427 5.99315 25.1946 6.01502 25.1698 6.05875C24.8445 6.63306 24.4843 7.38229 24.232 7.97119C21.3881 7.54848 18.5588 7.54848 15.7732 7.97119C15.5209 7.3692 15.1476 6.63306 14.8209 6.05875C14.7961 6.01648 14.748 5.99461 14.6998 6.0019C12.0572 6.45378 9.52832 7.24529 7.16861 8.32105C7.14818 8.32979 7.13067 8.34438 7.11905 8.36332C2.32231 15.4782 1.00829 22.4182 1.6529 29.2721C1.65582 29.3056 1.67478 29.3377 1.70103 29.3581C4.86578 31.6655 7.93138 33.0664 10.9401 33.9949C10.9882 34.0095 11.0392 33.992 11.0699 33.9526C11.7816 32.9877 12.416 31.9702 12.9599 30.9003C12.992 30.8376 12.9614 30.7633 12.8958 30.7385C11.8895 30.3595 10.9313 29.8974 10.0096 29.3727C9.93668 29.3304 9.93084 29.2269 9.99791 29.1773C10.1919 29.033 10.3859 28.8829 10.5711 28.7313C10.6046 28.7036 10.6513 28.6977 10.6907 28.7152C16.746 31.46 23.3015 31.46 29.2854 28.7152C29.3248 28.6963 29.3715 28.7021 29.4064 28.7298C29.5917 28.8814 29.7857 29.033 29.9811 29.1773C30.0482 29.2269 30.0438 29.3304 29.9709 29.3727C29.0492 29.9076 28.091 30.3595 27.0832 30.737C27.0176 30.7618 26.9884 30.8376 27.0205 30.9003C27.5761 31.9687 28.2106 32.9862 28.9091 33.9512C28.9383 33.992 28.9908 34.0095 29.0389 33.9949C32.0622 33.0664 35.1278 31.6655 38.2925 29.3581C38.3203 29.3377 38.3378 29.3071 38.3407 29.2735C39.1122 21.3496 37.0485 14.4666 32.8702 8.36477C32.8599 8.34438 32.8425 8.32979 32.8221 8.32105ZM13.8642 25.0988C12.0411 25.0988 10.539 23.4371 10.539 21.3963C10.539 19.3556 12.012 17.6939 13.8642 17.6939C15.7309 17.6939 17.2185 19.3702 17.1894 21.3963C17.1894 23.4371 15.7163 25.0988 13.8642 25.0988ZM26.1586 25.0988C24.3356 25.0988 22.8334 23.4371 22.8334 21.3963C22.8334 19.3556 24.3064 17.6939 26.1586 17.6939C28.0254 17.6939 29.5129 19.3702 29.4838 21.3963C29.4838 23.4371 28.0254 25.0988 26.1586 25.0988Z"
      fill="#01FFC2"></path>
  </symbol>
  <symbol fill="none"
    xmlns="http://www.w3.org/2000/svg"
    viewBox="0 0 40 40"
    id="social2">
    <path d="M5.14097 20.0244L12.2117 22.3297L14.9126 30.9823C15.24 31.9292 15.0763 32.3049 16.0322 32.3049C16.7688 32.3049 17.0962 31.9548 17.5055 31.5365C17.7657 31.2701 19.3126 29.7016 21.0404 27.9504L28.3943 33.6189C29.7472 34.3976 30.7244 33.9938 31.0616 32.3075L35.8906 8.5763C36.3816 6.5092 35.1351 5.5717 33.8444 6.1856L5.49373 17.5876C3.55889 18.397 3.57116 19.5223 5.14097 20.0244ZM29.2561 11.3094C30.0517 10.8065 30.7809 11.0772 30.1826 11.6313L16.5372 24.4745L16.006 30.3864L13.3207 21.7978L29.2561 11.3094Z"
      fill="#01FFC2"></path>
  </symbol>
  <symbol fill="none"
    xmlns="http://www.w3.org/2000/svg"
    viewBox="0 0 40 40"
    id="social3">
    <path d="M35.7987 9.75354C33.7121 10.4896 33.4542 10.3961 34.4506 9.27451C35.2111 8.52536 35.7921 7.61477 36.1503 6.61062C36.1503 6.52883 35.7869 6.61062 35.3649 6.87934C34.6717 7.22139 33.9501 7.50286 33.2081 7.72057L31.8835 8.14119L30.7112 7.32333C30.061 6.8806 29.3607 6.51588 28.6247 6.23674C27.2072 5.89202 25.7237 5.92425 24.3226 6.33021C22.8531 6.83335 21.5897 7.80283 20.7259 9.09011C19.862 10.3774 19.4455 11.9115 19.54 13.4573L19.6103 14.6257L18.4381 14.4855C13.9937 13.9366 9.86427 11.9116 6.71594 8.73706L5.08656 7.1247L4.67627 8.29308C4.22547 9.53514 4.12924 10.8775 4.39828 12.1708C4.66731 13.4642 5.29107 14.6577 6.20016 15.6188C7.18482 16.6586 6.9621 16.7871 5.26238 16.1913C4.67627 15.9927 4.1605 15.8408 4.09016 15.9226C4.16123 17.0718 4.46003 18.1956 4.96933 19.229C5.75459 20.5937 6.92434 21.6986 8.33359 22.407L9.50581 22.9678H8.07571C6.70421 22.9678 6.65733 22.9678 6.79799 23.517C7.2307 24.4808 7.86423 25.3419 8.65649 26.0429C9.44875 26.7439 10.3816 27.2689 11.3931 27.5829L12.917 28.097L11.5924 28.8915C9.58128 30.0339 7.31843 30.664 5.0045 30.7258C4.33015 30.6925 3.65456 30.7594 3 30.9245C4.45544 31.86 6.03323 32.5912 7.68887 33.0976C10.3604 33.9114 13.1694 34.1787 15.9472 33.8836C18.725 33.5884 21.4143 32.7369 23.8538 31.3801C27.489 29.0665 30.3467 25.7217 32.0593 21.7761C32.9907 19.4016 33.5558 16.9002 33.7356 14.3569C33.7356 13.1886 33.8059 13.06 35.1774 11.7047C35.8046 11.1195 36.381 10.4824 36.9005 9.80028C37.1115 9.33293 37.0881 9.33293 35.7987 9.75354Z"
      fill="#01FFC2"></path>
  </symbol>
  <symbol fill="none"
    xmlns="http://www.w3.org/2000/svg"
    viewBox="0 0 40 40"
    id="social4">
    <path d="M16.2861 34.161C16.292 34.0703 16.292 33.9793 16.2861 33.8887V19.9527H13.4238V15.0982H16.3452V14.7312C16.3452 13.6419 16.3452 12.5525 16.3452 11.4632C16.3537 10.2628 16.6803 9.08609 17.2915 8.05325C17.8678 7.11109 18.7887 6.43138 19.8581 6.15884C20.4849 5.96845 21.1321 5.85314 21.786 5.81543C23.371 5.81543 24.9677 5.81543 26.5171 5.81543V10.67H26.2214H23.5839C23.4002 10.6793 23.2179 10.7071 23.0398 10.7529C22.7948 10.8052 22.5756 10.9414 22.4202 11.138C22.2647 11.3347 22.1826 11.5795 22.1881 11.8303C22.1881 12.8722 22.1881 13.9378 22.1881 14.9916C22.1881 14.9916 22.1881 14.9916 22.1881 15.0627H26.5763L26.0558 19.9527H22.1409V33.8295C22.1409 33.9479 22.1409 34.0663 22.1409 34.1847L16.2861 34.161Z"
      fill="#01FFC2"></path>
  </symbol>
  <symbol fill="none"
    xmlns="http://www.w3.org/2000/svg"
    viewBox="0 0 40 40"
    id="social5">
    <path fill-rule="evenodd"
      clip-rule="evenodd"
      d="M29.807 11.993C29.807 12.9873 29.0009 13.793 28.007 13.793C27.013 13.793 26.207 12.9873 26.207 11.993C26.207 10.9988 27.013 10.193 28.007 10.193C29.0012 10.193 29.807 10.9988 29.807 11.993ZM20 24.9999C17.2386 24.9999 15.0001 22.7614 15.0001 20C15.0001 17.2386 17.2386 15.0001 20 15.0001C22.7614 15.0001 24.9999 17.2386 24.9999 20C24.9999 22.7614 22.7614 24.9999 20 24.9999ZM20 12.2973C15.7459 12.2973 12.2973 15.7459 12.2973 20C12.2973 24.2541 15.7459 27.7027 20 27.7027C24.2541 27.7027 27.7027 24.2541 27.7027 20C27.7027 15.7459 24.2541 12.2973 20 12.2973ZM20 7.70281C24.0052 7.70281 24.4796 7.71805 26.0612 7.79023C27.5237 7.85703 28.318 8.10125 28.8465 8.3068C29.5466 8.57891 30.0462 8.90398 30.5712 9.42898C31.0962 9.95375 31.4213 10.4534 31.6934 11.1538C31.8987 11.6823 32.1432 12.4766 32.21 13.9391C32.2822 15.5209 32.2974 15.9952 32.2974 20.0005C32.2974 24.0057 32.2822 24.4801 32.21 26.0616C32.1432 27.5241 31.899 28.3184 31.6934 28.847C31.4213 29.547 31.0962 30.0467 30.5712 30.5717C30.0465 31.0967 29.5468 31.4218 28.8465 31.6939C28.318 31.8992 27.5237 32.1437 26.0612 32.2105C24.4796 32.2827 24.0052 32.2979 20 32.2979C15.9945 32.2979 15.5202 32.2827 13.9386 32.2105C12.4761 32.1437 11.6818 31.8995 11.1533 31.6939C10.4532 31.4218 9.95352 31.0967 9.42852 30.5717C8.90375 30.047 8.57844 29.5473 8.30633 28.847C8.10102 28.3184 7.85656 27.5241 7.78977 26.0616C7.71758 24.4798 7.70234 24.0055 7.70234 20.0005C7.70234 15.9952 7.71758 15.5209 7.78977 13.9391C7.85656 12.4766 8.10078 11.6823 8.30633 11.1538C8.57844 10.4537 8.90352 9.95398 9.42852 9.42898C9.95328 8.90398 10.453 8.57891 11.1533 8.3068C11.6818 8.10148 12.4761 7.85703 13.9386 7.79023C15.5204 7.71805 15.9948 7.70281 20 7.70281ZM20 5C15.9263 5 15.4154 5.01734 13.8155 5.09023C12.219 5.16312 11.1284 5.41672 10.1745 5.7875C9.18805 6.1707 8.35156 6.68375 7.51766 7.51766C6.68375 8.35156 6.1707 9.18805 5.7875 10.1745C5.41672 11.1287 5.16312 12.219 5.09023 13.8155C5.01734 15.4154 5 15.9263 5 20C5 24.0737 5.01734 24.5846 5.09023 26.1845C5.16312 27.781 5.41672 28.8713 5.7875 29.8255C6.1707 30.812 6.68375 31.6484 7.51766 32.4823C8.35156 33.3163 9.18805 33.8291 10.1745 34.2125C11.1287 34.5833 12.219 34.8369 13.8155 34.9098C15.4154 34.9827 15.9263 35 20 35C24.0737 35 24.5846 34.9827 26.1845 34.9098C27.781 34.8369 28.8713 34.5833 29.8255 34.2125C30.812 33.8291 31.6484 33.3163 32.4823 32.4823C33.3163 31.6484 33.8291 30.812 34.2125 29.8255C34.5833 28.8713 34.8369 27.781 34.9098 26.1845C34.9827 24.5846 35 24.0737 35 20C35 15.9263 34.9827 15.4154 34.9098 13.8155C34.8369 12.219 34.5833 11.1287 34.2125 10.1745C33.8291 9.18805 33.3163 8.35156 32.4823 7.51766C31.6484 6.68375 30.812 6.17094 29.8255 5.7875C28.8713 5.41672 27.781 5.16312 26.1845 5.09023C24.5846 5.01734 24.0737 5 20 5Z"
      fill="#01FFC2"></path>
  </symbol>
  <symbol fill="none"
    xmlns="http://www.w3.org/2000/svg"
    viewBox="0 0 40 40"
    id="social6">
    <path d="M22.2078 20.0002C22.2078 25.5121 17.6758 29.9804 12.0857 29.9804C6.49555 29.9804 1.96326 25.5121 1.96326 20.0002C1.96326 14.4883 6.49521 10.0197 12.0857 10.0197C17.6762 10.0197 22.2078 14.4883 22.2078 20.0002Z"
      fill="#01FFC2"></path>
    <path d="M33.4941 20.0004C33.4941 25.1887 31.2281 29.3963 28.4329 29.3963C25.6376 29.3963 23.3716 25.1887 23.3716 20.0004C23.3716 14.8122 25.6373 10.6046 28.4325 10.6046C31.2278 10.6046 33.4941 14.8108 33.4941 20.0004Z"
      fill="#01FFC2"></path>
    <path d="M38.0368 20.0006C38.0368 24.648 37.24 28.4178 36.2568 28.4178C35.2735 28.4178 34.4771 24.649 34.4771 20.0006C34.4771 15.3522 35.2739 11.5834 36.2568 11.5834C37.2396 11.5834 38.0368 15.3518 38.0368 20.0006Z"
      fill="#01FFC2"></path>
  </symbol>
</svg>